<svg width="289" height="279" viewBox="0 0 289 279" fill="none" xmlns="http://www.w3.org/2000/svg">
<path d="M286.5 139.5C286.5 215.081 223.008 276.5 144.5 276.5C65.9919 276.5 2.5 215.081 2.5 139.5C2.5 63.9192 65.9919 2.5 144.5 2.5C223.008 2.5 286.5 63.9192 286.5 139.5Z" fill="#009970" stroke="#FFF4F4" stroke-width="5"/>
<path d="M70.8779 117.535L72.0498 111.676C75.2887 112.978 79.1136 113.629 83.5244 113.629C88.8792 113.629 91.9147 111.839 92.6309 108.258C93.1517 105.654 91.7682 104.352 88.4805 104.352H83.0117C75.8665 104.352 72.945 101.096 74.2471 94.5859C75.6794 87.4245 81.4818 83.8438 91.6543 83.8438C95.5605 83.8438 99.1494 84.4134 102.421 85.5527L101.249 91.4121C98.0101 90.11 94.4375 89.459 90.5312 89.459C84.6719 89.459 81.4004 91.168 80.7168 94.5859C80.196 97.1901 81.3516 98.4922 84.1836 98.4922H89.6523C97.2533 98.4922 100.403 101.747 99.1006 108.258C97.6357 115.582 92.0693 119.244 82.4014 119.244C77.9906 119.244 74.1494 118.674 70.8779 117.535ZM115.897 84.0879L108.915 119H102.445L109.428 84.0879H115.897ZM144.413 117.389C141.353 118.626 137.707 119.244 133.476 119.244C121.155 119.244 116.207 113.181 118.632 101.056C120.927 89.5811 128.34 83.8438 140.873 83.8438C144.698 83.8438 148.002 84.4134 150.785 85.5527L149.613 91.4121C146.863 90.11 143.738 89.459 140.238 89.459C131.856 89.459 126.892 93.3245 125.346 101.056C123.669 109.438 126.786 113.629 134.696 113.629C135.868 113.629 137.243 113.434 138.822 113.043L140.849 102.887H147.318L144.413 117.389ZM154.032 119H147.147L168.949 84.0879H175.907L184.062 119H177.348L175.272 109.479H163.676L167.021 103.863H174.052L171.171 90.7529L154.032 119ZM188.334 119L195.316 84.0879H210.941C218.07 84.0879 220.976 87.3675 219.657 93.9268C218.241 101.039 212.512 105.344 202.47 106.842L202.689 101.08C208.76 100.022 212.154 97.7028 212.87 94.1221C213.44 91.2249 212.276 89.7764 209.379 89.7764H200.639L194.804 119H188.334Z" fill="#FFFEFE"/>
<path d="M42.278 167V154.4H48.11C49.334 154.4 50.324 154.754 51.08 155.462C51.848 156.158 52.232 157.064 52.232 158.18C52.232 159.284 51.848 160.184 51.08 160.88C50.312 161.576 49.322 161.924 48.11 161.924H44.168V167H42.278ZM47.912 156.056H44.168V160.322H47.912C48.644 160.322 49.226 160.13 49.658 159.746C50.102 159.35 50.324 158.828 50.324 158.18C50.324 157.532 50.102 157.016 49.658 156.632C49.226 156.248 48.644 156.056 47.912 156.056ZM61.3027 165.956C60.7747 166.364 60.2227 166.67 59.6467 166.874C59.0707 167.066 58.4407 167.162 57.7567 167.162C57.0847 167.162 56.4547 167.042 55.8667 166.802C55.2787 166.55 54.7687 166.214 54.3367 165.794C53.9047 165.374 53.5627 164.876 53.3107 164.3C53.0707 163.712 52.9507 163.082 52.9507 162.41C52.9507 161.75 53.0707 161.132 53.3107 160.556C53.5507 159.98 53.8747 159.482 54.2827 159.062C54.6907 158.642 55.1767 158.312 55.7407 158.072C56.3047 157.82 56.9047 157.694 57.5407 157.694C58.1647 157.694 58.7467 157.82 59.2867 158.072C59.8387 158.312 60.3067 158.648 60.6907 159.08C61.0867 159.5 61.3987 160.004 61.6267 160.592C61.8547 161.18 61.9687 161.81 61.9687 162.482V163.004H54.7327C54.8527 163.76 55.2007 164.39 55.7767 164.894C56.3527 165.386 57.0367 165.632 57.8287 165.632C58.2727 165.632 58.6987 165.56 59.1067 165.416C59.5147 165.272 59.8627 165.074 60.1507 164.822L61.3027 165.956ZM57.5047 159.206C56.8207 159.206 56.2207 159.434 55.7047 159.89C55.2007 160.346 54.8827 160.934 54.7507 161.654H60.1867C60.0547 160.958 59.7367 160.376 59.2327 159.908C58.7407 159.44 58.1647 159.206 57.5047 159.206ZM63.6831 167V157.838H65.4831V158.702C65.8191 158.366 66.2031 158.108 66.6351 157.928C67.0671 157.748 67.5411 157.658 68.0571 157.658C68.6691 157.658 69.2211 157.796 69.7131 158.072C70.2051 158.336 70.5951 158.708 70.8831 159.188C71.2551 158.684 71.6991 158.306 72.2151 158.054C72.7431 157.79 73.3311 157.658 73.9791 157.658C74.9871 157.658 75.8091 157.994 76.4451 158.666C77.0931 159.326 77.4171 160.184 77.4171 161.24V167H75.6171V161.546C75.6171 160.826 75.4251 160.262 75.0411 159.854C74.6691 159.434 74.1591 159.224 73.5111 159.224C73.0671 159.224 72.6651 159.326 72.3051 159.53C71.9451 159.734 71.6331 160.04 71.3691 160.448C71.3931 160.568 71.4111 160.7 71.4231 160.844C71.4351 160.976 71.4411 161.108 71.4411 161.24V167H69.6591V161.546C69.6591 160.826 69.4671 160.262 69.0831 159.854C68.7111 159.434 68.2011 159.224 67.5531 159.224C67.1211 159.224 66.7311 159.32 66.3831 159.512C66.0351 159.692 65.7351 159.968 65.4831 160.34V167H63.6831ZM87.4238 165.956C86.8958 166.364 86.3438 166.67 85.7678 166.874C85.1918 167.066 84.5618 167.162 83.8778 167.162C83.2058 167.162 82.5758 167.042 81.9878 166.802C81.3998 166.55 80.8898 166.214 80.4578 165.794C80.0258 165.374 79.6838 164.876 79.4318 164.3C79.1918 163.712 79.0718 163.082 79.0718 162.41C79.0718 161.75 79.1918 161.132 79.4318 160.556C79.6718 159.98 79.9958 159.482 80.4038 159.062C80.8118 158.642 81.2978 158.312 81.8618 158.072C82.4258 157.82 83.0258 157.694 83.6618 157.694C84.2858 157.694 84.8678 157.82 85.4078 158.072C85.9598 158.312 86.4278 158.648 86.8118 159.08C87.2078 159.5 87.5198 160.004 87.7478 160.592C87.9758 161.18 88.0898 161.81 88.0898 162.482V163.004H80.8538C80.9738 163.76 81.3218 164.39 81.8978 164.894C82.4738 165.386 83.1578 165.632 83.9498 165.632C84.3938 165.632 84.8198 165.56 85.2278 165.416C85.6358 165.272 85.9838 165.074 86.2718 164.822L87.4238 165.956ZM83.6258 159.206C82.9418 159.206 82.3418 159.434 81.8258 159.89C81.3218 160.346 81.0038 160.934 80.8718 161.654H86.3078C86.1758 160.958 85.8578 160.376 85.3538 159.908C84.8618 159.44 84.2858 159.206 83.6258 159.206ZM90.6406 164.732V159.35H88.6966V157.838H90.6406V155.498L92.4226 155.066V157.838H95.1226V159.35H92.4226V164.318C92.4226 164.786 92.5246 165.116 92.7286 165.308C92.9446 165.5 93.2926 165.596 93.7726 165.596C94.0246 165.596 94.2466 165.584 94.4386 165.56C94.6426 165.524 94.8586 165.464 95.0866 165.38V166.892C94.8466 166.976 94.5646 167.042 94.2406 167.09C93.9286 167.138 93.6406 167.162 93.3766 167.162C92.4886 167.162 91.8106 166.958 91.3426 166.55C90.8746 166.13 90.6406 165.524 90.6406 164.732ZM99.3467 167.162C98.3507 167.162 97.5407 166.904 96.9167 166.388C96.2927 165.872 95.9807 165.2 95.9807 164.372C95.9807 163.508 96.3107 162.83 96.9707 162.338C97.6307 161.834 98.5367 161.582 99.6887 161.582C100.133 161.582 100.565 161.63 100.985 161.726C101.405 161.81 101.807 161.93 102.191 162.086V161.114C102.191 160.466 101.999 159.98 101.615 159.656C101.231 159.332 100.679 159.17 99.9587 159.17C99.5387 159.17 99.1007 159.236 98.6447 159.368C98.1887 159.488 97.6787 159.68 97.1147 159.944L96.4487 158.594C97.1327 158.27 97.7807 158.036 98.3927 157.892C99.0047 157.736 99.6107 157.658 100.211 157.658C101.399 157.658 102.317 157.946 102.965 158.522C103.625 159.086 103.955 159.89 103.955 160.934V167H102.191V166.208C101.783 166.532 101.345 166.772 100.877 166.928C100.409 167.084 99.8987 167.162 99.3467 167.162ZM97.7087 164.336C97.7087 164.78 97.8947 165.14 98.2667 165.416C98.6507 165.692 99.1487 165.83 99.7607 165.83C100.241 165.83 100.685 165.758 101.093 165.614C101.501 165.47 101.867 165.254 102.191 164.966V163.382C101.843 163.19 101.477 163.052 101.093 162.968C100.709 162.872 100.289 162.824 99.8327 162.824C99.1847 162.824 98.6687 162.962 98.2847 163.238C97.9007 163.514 97.7087 163.88 97.7087 164.336ZM108.927 167.162C107.931 167.162 107.121 166.904 106.497 166.388C105.873 165.872 105.561 165.2 105.561 164.372C105.561 163.508 105.891 162.83 106.551 162.338C107.211 161.834 108.117 161.582 109.269 161.582C109.713 161.582 110.145 161.63 110.565 161.726C110.985 161.81 111.387 161.93 111.771 162.086V161.114C111.771 160.466 111.579 159.98 111.195 159.656C110.811 159.332 110.259 159.17 109.539 159.17C109.119 159.17 108.681 159.236 108.225 159.368C107.769 159.488 107.259 159.68 106.695 159.944L106.029 158.594C106.713 158.27 107.361 158.036 107.973 157.892C108.585 157.736 109.191 157.658 109.791 157.658C110.979 157.658 111.897 157.946 112.545 158.522C113.205 159.086 113.535 159.89 113.535 160.934V167H111.771V166.208C111.363 166.532 110.925 166.772 110.457 166.928C109.989 167.084 109.479 167.162 108.927 167.162ZM107.289 164.336C107.289 164.78 107.475 165.14 107.847 165.416C108.231 165.692 108.729 165.83 109.341 165.83C109.821 165.83 110.265 165.758 110.673 165.614C111.081 165.47 111.447 165.254 111.771 164.966V163.382C111.423 163.19 111.057 163.052 110.673 162.968C110.289 162.872 109.869 162.824 109.413 162.824C108.765 162.824 108.249 162.962 107.865 163.238C107.481 163.514 107.289 163.88 107.289 164.336ZM115.609 167V157.838H117.409V158.756C117.769 158.396 118.177 158.126 118.633 157.946C119.101 157.754 119.611 157.658 120.163 157.658C121.207 157.658 122.065 157.994 122.737 158.666C123.409 159.326 123.745 160.184 123.745 161.24V167H121.945V161.546C121.945 160.826 121.735 160.262 121.315 159.854C120.907 159.434 120.361 159.224 119.677 159.224C119.197 159.224 118.759 159.326 118.363 159.53C117.979 159.734 117.661 160.028 117.409 160.412V167H115.609ZM128.539 167L133.759 154.4H135.973L141.121 167H139.069L137.611 163.31H131.977L130.501 167H128.539ZM132.607 161.744H136.999L134.803 156.218L132.607 161.744ZM145.906 167.072C145.27 167.072 144.67 166.952 144.106 166.712C143.542 166.46 143.05 166.124 142.63 165.704C142.222 165.284 141.898 164.786 141.658 164.21C141.418 163.634 141.298 163.022 141.298 162.374C141.298 161.726 141.418 161.114 141.658 160.538C141.898 159.962 142.222 159.464 142.63 159.044C143.05 158.624 143.542 158.294 144.106 158.054C144.682 157.802 145.294 157.676 145.942 157.676C146.434 157.676 146.908 157.754 147.364 157.91C147.832 158.066 148.264 158.294 148.66 158.594V157.838H150.442V167.126C150.442 168.314 150.076 169.226 149.344 169.862C148.624 170.51 147.592 170.834 146.248 170.834C145.588 170.834 144.934 170.756 144.286 170.6C143.65 170.444 143.074 170.222 142.558 169.934L143.26 168.53C143.776 168.794 144.274 168.992 144.754 169.124C145.234 169.256 145.714 169.322 146.194 169.322C146.986 169.322 147.592 169.136 148.012 168.764C148.432 168.392 148.642 167.846 148.642 167.126V166.1C148.258 166.412 147.832 166.652 147.364 166.82C146.896 166.988 146.41 167.072 145.906 167.072ZM143.062 162.374C143.062 163.25 143.356 163.994 143.944 164.606C144.532 165.206 145.258 165.506 146.122 165.506C146.638 165.506 147.112 165.416 147.544 165.236C147.976 165.044 148.342 164.78 148.642 164.444V160.304C148.354 159.968 147.988 159.71 147.544 159.53C147.112 159.338 146.638 159.242 146.122 159.242C145.258 159.242 144.532 159.548 143.944 160.16C143.356 160.76 143.062 161.498 143.062 162.374ZM160.496 165.956C159.968 166.364 159.416 166.67 158.84 166.874C158.264 167.066 157.634 167.162 156.95 167.162C156.278 167.162 155.648 167.042 155.06 166.802C154.472 166.55 153.962 166.214 153.53 165.794C153.098 165.374 152.756 164.876 152.504 164.3C152.264 163.712 152.144 163.082 152.144 162.41C152.144 161.75 152.264 161.132 152.504 160.556C152.744 159.98 153.068 159.482 153.476 159.062C153.884 158.642 154.37 158.312 154.934 158.072C155.498 157.82 156.098 157.694 156.734 157.694C157.358 157.694 157.94 157.82 158.48 158.072C159.032 158.312 159.5 158.648 159.884 159.08C160.28 159.5 160.592 160.004 160.82 160.592C161.048 161.18 161.162 161.81 161.162 162.482V163.004H153.926C154.046 163.76 154.394 164.39 154.97 164.894C155.546 165.386 156.23 165.632 157.022 165.632C157.466 165.632 157.892 165.56 158.3 165.416C158.708 165.272 159.056 165.074 159.344 164.822L160.496 165.956ZM156.698 159.206C156.014 159.206 155.414 159.434 154.898 159.89C154.394 160.346 154.076 160.934 153.944 161.654H159.38C159.248 160.958 158.93 160.376 158.426 159.908C157.934 159.44 157.358 159.206 156.698 159.206ZM162.876 167V157.838H164.676V158.756C165.036 158.396 165.444 158.126 165.9 157.946C166.368 157.754 166.878 157.658 167.43 157.658C168.474 157.658 169.332 157.994 170.004 158.666C170.676 159.326 171.012 160.184 171.012 161.24V167H169.212V161.546C169.212 160.826 169.002 160.262 168.582 159.854C168.174 159.434 167.628 159.224 166.944 159.224C166.464 159.224 166.026 159.326 165.63 159.53C165.246 159.734 164.928 160.028 164.676 160.412V167H162.876ZM189.307 160.862C189.307 161.762 189.145 162.602 188.821 163.382C188.509 164.15 188.077 164.816 187.525 165.38C186.973 165.944 186.313 166.388 185.545 166.712C184.789 167.036 183.973 167.198 183.097 167.198C182.185 167.198 181.327 167.03 180.523 166.694C179.719 166.358 179.023 165.902 178.435 165.326C177.847 164.738 177.379 164.048 177.031 163.256C176.695 162.452 176.527 161.6 176.527 160.7C176.527 159.8 176.695 158.954 177.031 158.162C177.379 157.358 177.841 156.668 178.417 156.092C179.005 155.504 179.701 155.042 180.505 154.706C181.309 154.37 182.167 154.202 183.079 154.202C184.075 154.202 185.017 154.394 185.905 154.778C186.793 155.162 187.543 155.696 188.155 156.38L186.859 157.64C186.391 157.1 185.821 156.686 185.149 156.398C184.489 156.098 183.799 155.948 183.079 155.948C182.431 155.948 181.819 156.068 181.243 156.308C180.679 156.548 180.187 156.884 179.767 157.316C179.359 157.736 179.035 158.24 178.795 158.828C178.567 159.404 178.453 160.028 178.453 160.7C178.453 161.372 178.573 162.002 178.813 162.59C179.053 163.166 179.377 163.67 179.785 164.102C180.205 164.522 180.697 164.858 181.261 165.11C181.837 165.35 182.455 165.47 183.115 165.47C184.231 165.47 185.179 165.134 185.959 164.462C186.751 163.778 187.207 162.914 187.327 161.87H183.133V160.214H189.307V160.862ZM193.97 167.162C192.974 167.162 192.164 166.904 191.54 166.388C190.916 165.872 190.604 165.2 190.604 164.372C190.604 163.508 190.934 162.83 191.594 162.338C192.254 161.834 193.16 161.582 194.312 161.582C194.756 161.582 195.188 161.63 195.608 161.726C196.028 161.81 196.43 161.93 196.814 162.086V161.114C196.814 160.466 196.622 159.98 196.238 159.656C195.854 159.332 195.302 159.17 194.582 159.17C194.162 159.17 193.724 159.236 193.268 159.368C192.812 159.488 192.302 159.68 191.738 159.944L191.072 158.594C191.756 158.27 192.404 158.036 193.016 157.892C193.628 157.736 194.234 157.658 194.834 157.658C196.022 157.658 196.94 157.946 197.588 158.522C198.248 159.086 198.578 159.89 198.578 160.934V167H196.814V166.208C196.406 166.532 195.968 166.772 195.5 166.928C195.032 167.084 194.522 167.162 193.97 167.162ZM192.332 164.336C192.332 164.78 192.518 165.14 192.89 165.416C193.274 165.692 193.772 165.83 194.384 165.83C194.864 165.83 195.308 165.758 195.716 165.614C196.124 165.47 196.49 165.254 196.814 164.966V163.382C196.466 163.19 196.1 163.052 195.716 162.968C195.332 162.872 194.912 162.824 194.456 162.824C193.808 162.824 193.292 162.962 192.908 163.238C192.524 163.514 192.332 163.88 192.332 164.336ZM199.788 165.812L200.76 164.624C201.24 164.996 201.726 165.284 202.218 165.488C202.722 165.68 203.232 165.776 203.748 165.776C204.396 165.776 204.924 165.65 205.332 165.398C205.74 165.146 205.944 164.816 205.944 164.408C205.944 164.084 205.824 163.826 205.584 163.634C205.344 163.442 204.972 163.31 204.468 163.238L202.812 163.004C201.912 162.872 201.228 162.596 200.76 162.176C200.304 161.744 200.076 161.174 200.076 160.466C200.076 159.638 200.406 158.972 201.066 158.468C201.726 157.952 202.59 157.694 203.658 157.694C204.33 157.694 204.966 157.79 205.566 157.982C206.178 158.174 206.772 158.468 207.348 158.864L206.43 160.052C205.926 159.716 205.434 159.476 204.954 159.332C204.486 159.176 204.012 159.098 203.532 159.098C202.98 159.098 202.536 159.212 202.2 159.44C201.864 159.668 201.696 159.968 201.696 160.34C201.696 160.676 201.81 160.934 202.038 161.114C202.278 161.282 202.668 161.408 203.208 161.492L204.864 161.726C205.764 161.858 206.448 162.14 206.916 162.572C207.396 163.004 207.636 163.574 207.636 164.282C207.636 164.69 207.534 165.074 207.33 165.434C207.138 165.782 206.868 166.082 206.52 166.334C206.184 166.586 205.782 166.79 205.314 166.946C204.846 167.09 204.342 167.162 203.802 167.162C203.01 167.162 202.266 167.048 201.57 166.82C200.886 166.592 200.292 166.256 199.788 165.812ZM212.997 167V154.4H214.887V165.326H222.141V167H212.997ZM224.053 167V154.4H229.885C231.109 154.4 232.099 154.754 232.855 155.462C233.623 156.158 234.007 157.064 234.007 158.18C234.007 159.284 233.623 160.184 232.855 160.88C232.087 161.576 231.097 161.924 229.885 161.924H225.943V167H224.053ZM229.687 156.056H225.943V160.322H229.687C230.419 160.322 231.001 160.13 231.433 159.746C231.877 159.35 232.099 158.828 232.099 158.18C232.099 157.532 231.877 157.016 231.433 156.632C231.001 156.248 230.419 156.056 229.687 156.056ZM248.194 160.862C248.194 161.762 248.032 162.602 247.708 163.382C247.396 164.15 246.964 164.816 246.412 165.38C245.86 165.944 245.2 166.388 244.432 166.712C243.676 167.036 242.86 167.198 241.984 167.198C241.072 167.198 240.214 167.03 239.41 166.694C238.606 166.358 237.91 165.902 237.322 165.326C236.734 164.738 236.266 164.048 235.918 163.256C235.582 162.452 235.414 161.6 235.414 160.7C235.414 159.8 235.582 158.954 235.918 158.162C236.266 157.358 236.728 156.668 237.304 156.092C237.892 155.504 238.588 155.042 239.392 154.706C240.196 154.37 241.054 154.202 241.966 154.202C242.962 154.202 243.904 154.394 244.792 154.778C245.68 155.162 246.43 155.696 247.042 156.38L245.746 157.64C245.278 157.1 244.708 156.686 244.036 156.398C243.376 156.098 242.686 155.948 241.966 155.948C241.318 155.948 240.706 156.068 240.13 156.308C239.566 156.548 239.074 156.884 238.654 157.316C238.246 157.736 237.922 158.24 237.682 158.828C237.454 159.404 237.34 160.028 237.34 160.7C237.34 161.372 237.46 162.002 237.7 162.59C237.94 163.166 238.264 163.67 238.672 164.102C239.092 164.522 239.584 164.858 240.148 165.11C240.724 165.35 241.342 165.47 242.002 165.47C243.118 165.47 244.066 165.134 244.846 164.462C245.638 163.778 246.094 162.914 246.214 161.87H242.02V160.214H248.194V160.862Z" fill="#FFFCFC"/>
<path d="M69.278 188V175.4H71.168V181.268L77.27 175.4H79.646L73.148 181.484L79.862 188H77.27L71.168 182.006V188H69.278ZM83.1748 188.162C82.1788 188.162 81.3688 187.904 80.7448 187.388C80.1208 186.872 79.8088 186.2 79.8088 185.372C79.8088 184.508 80.1388 183.83 80.7988 183.338C81.4588 182.834 82.3648 182.582 83.5168 182.582C83.9608 182.582 84.3928 182.63 84.8128 182.726C85.2328 182.81 85.6348 182.93 86.0188 183.086V182.114C86.0188 181.466 85.8268 180.98 85.4428 180.656C85.0588 180.332 84.5068 180.17 83.7868 180.17C83.3668 180.17 82.9288 180.236 82.4728 180.368C82.0168 180.488 81.5068 180.68 80.9428 180.944L80.2768 179.594C80.9608 179.27 81.6088 179.036 82.2208 178.892C82.8328 178.736 83.4388 178.658 84.0388 178.658C85.2268 178.658 86.1448 178.946 86.7928 179.522C87.4528 180.086 87.7828 180.89 87.7828 181.934V188H86.0188V187.208C85.6108 187.532 85.1728 187.772 84.7048 187.928C84.2368 188.084 83.7268 188.162 83.1748 188.162ZM81.5368 185.336C81.5368 185.78 81.7228 186.14 82.0948 186.416C82.4788 186.692 82.9768 186.83 83.5888 186.83C84.0688 186.83 84.5128 186.758 84.9208 186.614C85.3288 186.47 85.6948 186.254 86.0188 185.966V184.382C85.6708 184.19 85.3048 184.052 84.9208 183.968C84.5368 183.872 84.1168 183.824 83.6608 183.824C83.0128 183.824 82.4968 183.962 82.1128 184.238C81.7288 184.514 81.5368 184.88 81.5368 185.336ZM99.0729 183.41C99.0729 184.07 98.9529 184.694 98.7129 185.282C98.4729 185.858 98.1429 186.356 97.7229 186.776C97.3149 187.196 96.8229 187.532 96.2469 187.784C95.6709 188.024 95.0589 188.144 94.4109 188.144C93.8949 188.144 93.4029 188.066 92.9349 187.91C92.4669 187.754 92.0349 187.526 91.6389 187.226V188H89.8569V175.4L91.6569 175.004V179.702C92.0289 179.378 92.4549 179.132 92.9349 178.964C93.4149 178.784 93.9189 178.694 94.4469 178.694C95.0949 178.694 95.7009 178.82 96.2649 179.072C96.8289 179.312 97.3149 179.642 97.7229 180.062C98.1429 180.482 98.4729 180.98 98.7129 181.556C98.9529 182.132 99.0729 182.75 99.0729 183.41ZM94.2129 180.26C93.6969 180.26 93.2169 180.356 92.7729 180.548C92.3289 180.74 91.9569 181.01 91.6569 181.358V185.498C91.9449 185.834 92.3109 186.098 92.7549 186.29C93.2109 186.482 93.6969 186.578 94.2129 186.578C95.0889 186.578 95.8209 186.278 96.4089 185.678C97.0089 185.078 97.3089 184.328 97.3089 183.428C97.3089 182.528 97.0089 181.778 96.4089 181.178C95.8089 180.566 95.0769 180.26 94.2129 180.26ZM102.555 178.838V184.274C102.555 184.994 102.759 185.564 103.167 185.984C103.587 186.404 104.139 186.614 104.823 186.614C105.303 186.614 105.735 186.512 106.119 186.308C106.503 186.092 106.821 185.792 107.073 185.408V178.838H108.873V188H107.073V187.082C106.713 187.442 106.299 187.718 105.831 187.91C105.375 188.09 104.871 188.18 104.319 188.18C103.275 188.18 102.417 187.844 101.745 187.172C101.085 186.5 100.755 185.636 100.755 184.58V178.838H102.555ZM111.003 191.726V178.838H112.785V179.72C113.157 179.384 113.583 179.132 114.063 178.964C114.543 178.784 115.053 178.694 115.593 178.694C116.241 178.694 116.847 178.82 117.411 179.072C117.975 179.312 118.461 179.642 118.869 180.062C119.289 180.482 119.619 180.98 119.859 181.556C120.099 182.132 120.219 182.75 120.219 183.41C120.219 184.07 120.099 184.694 119.859 185.282C119.619 185.858 119.289 186.356 118.869 186.776C118.461 187.196 117.969 187.532 117.393 187.784C116.817 188.024 116.205 188.144 115.557 188.144C115.053 188.144 114.561 188.066 114.081 187.91C113.613 187.754 113.187 187.532 112.803 187.244V191.726H111.003ZM115.359 180.26C114.843 180.26 114.363 180.356 113.919 180.548C113.475 180.74 113.103 181.01 112.803 181.358V185.498C113.091 185.834 113.457 186.098 113.901 186.29C114.357 186.482 114.843 186.578 115.359 186.578C116.235 186.578 116.967 186.278 117.555 185.678C118.155 185.078 118.455 184.328 118.455 183.428C118.455 182.528 118.155 181.778 117.555 181.178C116.955 180.566 116.223 180.26 115.359 180.26ZM124.923 188.162C123.927 188.162 123.117 187.904 122.493 187.388C121.869 186.872 121.557 186.2 121.557 185.372C121.557 184.508 121.887 183.83 122.547 183.338C123.207 182.834 124.113 182.582 125.265 182.582C125.709 182.582 126.141 182.63 126.561 182.726C126.981 182.81 127.383 182.93 127.767 183.086V182.114C127.767 181.466 127.575 180.98 127.191 180.656C126.807 180.332 126.255 180.17 125.535 180.17C125.115 180.17 124.677 180.236 124.221 180.368C123.765 180.488 123.255 180.68 122.691 180.944L122.025 179.594C122.709 179.27 123.357 179.036 123.969 178.892C124.581 178.736 125.187 178.658 125.787 178.658C126.975 178.658 127.893 178.946 128.541 179.522C129.201 180.086 129.531 180.89 129.531 181.934V188H127.767V187.208C127.359 187.532 126.921 187.772 126.453 187.928C125.985 188.084 125.475 188.162 124.923 188.162ZM123.285 185.336C123.285 185.78 123.471 186.14 123.843 186.416C124.227 186.692 124.725 186.83 125.337 186.83C125.817 186.83 126.261 186.758 126.669 186.614C127.077 186.47 127.443 186.254 127.767 185.966V184.382C127.419 184.19 127.053 184.052 126.669 183.968C126.285 183.872 125.865 183.824 125.409 183.824C124.761 183.824 124.245 183.962 123.861 184.238C123.477 184.514 123.285 184.88 123.285 185.336ZM132.441 185.732V180.35H130.497V178.838H132.441V176.498L134.223 176.066V178.838H136.923V180.35H134.223V185.318C134.223 185.786 134.325 186.116 134.529 186.308C134.745 186.5 135.093 186.596 135.573 186.596C135.825 186.596 136.047 186.584 136.239 186.56C136.443 186.524 136.659 186.464 136.887 186.38V187.892C136.647 187.976 136.365 188.042 136.041 188.09C135.729 188.138 135.441 188.162 135.177 188.162C134.289 188.162 133.611 187.958 133.143 187.55C132.675 187.13 132.441 186.524 132.441 185.732ZM145.994 186.956C145.466 187.364 144.914 187.67 144.338 187.874C143.762 188.066 143.132 188.162 142.448 188.162C141.776 188.162 141.146 188.042 140.558 187.802C139.97 187.55 139.46 187.214 139.028 186.794C138.596 186.374 138.254 185.876 138.002 185.3C137.762 184.712 137.642 184.082 137.642 183.41C137.642 182.75 137.762 182.132 138.002 181.556C138.242 180.98 138.566 180.482 138.974 180.062C139.382 179.642 139.868 179.312 140.432 179.072C140.996 178.82 141.596 178.694 142.232 178.694C142.856 178.694 143.438 178.82 143.978 179.072C144.53 179.312 144.998 179.648 145.382 180.08C145.778 180.5 146.09 181.004 146.318 181.592C146.546 182.18 146.66 182.81 146.66 183.482V184.004H139.424C139.544 184.76 139.892 185.39 140.468 185.894C141.044 186.386 141.728 186.632 142.52 186.632C142.964 186.632 143.39 186.56 143.798 186.416C144.206 186.272 144.554 186.074 144.842 185.822L145.994 186.956ZM142.196 180.206C141.512 180.206 140.912 180.434 140.396 180.89C139.892 181.346 139.574 181.934 139.442 182.654H144.878C144.746 181.958 144.428 181.376 143.924 180.908C143.432 180.44 142.856 180.206 142.196 180.206ZM148.375 188V178.838H150.175V179.756C150.535 179.396 150.943 179.126 151.399 178.946C151.867 178.754 152.377 178.658 152.929 178.658C153.973 178.658 154.831 178.994 155.503 179.666C156.175 180.326 156.511 181.184 156.511 182.24V188H154.711V182.546C154.711 181.826 154.501 181.262 154.081 180.854C153.673 180.434 153.127 180.224 152.443 180.224C151.963 180.224 151.525 180.326 151.129 180.53C150.745 180.734 150.427 181.028 150.175 181.412V188H148.375ZM162.565 175.4H168.019C169.243 175.4 170.227 175.706 170.971 176.318C171.727 176.918 172.105 177.722 172.105 178.73C172.105 179.33 171.949 179.87 171.637 180.35C171.325 180.818 170.899 181.184 170.359 181.448C171.043 181.712 171.583 182.102 171.979 182.618C172.387 183.134 172.591 183.734 172.591 184.418C172.591 185.498 172.195 186.368 171.403 187.028C170.611 187.676 169.561 188 168.253 188H162.565V175.4ZM167.911 177.002H164.455V180.746H167.911C168.619 180.746 169.183 180.578 169.603 180.242C170.023 179.906 170.233 179.45 170.233 178.874C170.233 178.298 170.023 177.842 169.603 177.506C169.183 177.17 168.619 177.002 167.911 177.002ZM168.109 186.398C168.889 186.398 169.513 186.212 169.981 185.84C170.449 185.456 170.683 184.952 170.683 184.328C170.683 183.716 170.449 183.218 169.981 182.834C169.513 182.45 168.889 182.258 168.109 182.258H164.455V186.398H168.109ZM177.323 188.162C176.327 188.162 175.517 187.904 174.893 187.388C174.269 186.872 173.957 186.2 173.957 185.372C173.957 184.508 174.287 183.83 174.947 183.338C175.607 182.834 176.513 182.582 177.665 182.582C178.109 182.582 178.541 182.63 178.961 182.726C179.381 182.81 179.783 182.93 180.167 183.086V182.114C180.167 181.466 179.975 180.98 179.591 180.656C179.207 180.332 178.655 180.17 177.935 180.17C177.515 180.17 177.077 180.236 176.621 180.368C176.165 180.488 175.655 180.68 175.091 180.944L174.425 179.594C175.109 179.27 175.757 179.036 176.369 178.892C176.981 178.736 177.587 178.658 178.187 178.658C179.375 178.658 180.293 178.946 180.941 179.522C181.601 180.086 181.931 180.89 181.931 181.934V188H180.167V187.208C179.759 187.532 179.321 187.772 178.853 187.928C178.385 188.084 177.875 188.162 177.323 188.162ZM175.685 185.336C175.685 185.78 175.871 186.14 176.243 186.416C176.627 186.692 177.125 186.83 177.737 186.83C178.217 186.83 178.661 186.758 179.069 186.614C179.477 186.47 179.843 186.254 180.167 185.966V184.382C179.819 184.19 179.453 184.052 179.069 183.968C178.685 183.872 178.265 183.824 177.809 183.824C177.161 183.824 176.645 183.962 176.261 184.238C175.877 184.514 175.685 184.88 175.685 185.336ZM184.842 185.732V180.35H182.898V178.838H184.842V176.498L186.624 176.066V178.838H189.324V180.35H186.624V185.318C186.624 185.786 186.726 186.116 186.93 186.308C187.146 186.5 187.494 186.596 187.974 186.596C188.226 186.596 188.448 186.584 188.64 186.56C188.844 186.524 189.06 186.464 189.288 186.38V187.892C189.048 187.976 188.766 188.042 188.442 188.09C188.13 188.138 187.842 188.162 187.578 188.162C186.69 188.162 186.012 187.958 185.544 187.55C185.076 187.13 184.842 186.524 184.842 185.732ZM193.548 188.162C192.552 188.162 191.742 187.904 191.118 187.388C190.494 186.872 190.182 186.2 190.182 185.372C190.182 184.508 190.512 183.83 191.172 183.338C191.832 182.834 192.738 182.582 193.89 182.582C194.334 182.582 194.766 182.63 195.186 182.726C195.606 182.81 196.008 182.93 196.392 183.086V182.114C196.392 181.466 196.2 180.98 195.816 180.656C195.432 180.332 194.88 180.17 194.16 180.17C193.74 180.17 193.302 180.236 192.846 180.368C192.39 180.488 191.88 180.68 191.316 180.944L190.65 179.594C191.334 179.27 191.982 179.036 192.594 178.892C193.206 178.736 193.812 178.658 194.412 178.658C195.6 178.658 196.518 178.946 197.166 179.522C197.826 180.086 198.156 180.89 198.156 181.934V188H196.392V187.208C195.984 187.532 195.546 187.772 195.078 187.928C194.61 188.084 194.1 188.162 193.548 188.162ZM191.91 185.336C191.91 185.78 192.096 186.14 192.468 186.416C192.852 186.692 193.35 186.83 193.962 186.83C194.442 186.83 194.886 186.758 195.294 186.614C195.702 186.47 196.068 186.254 196.392 185.966V184.382C196.044 184.19 195.678 184.052 195.294 183.968C194.91 183.872 194.49 183.824 194.034 183.824C193.386 183.824 192.87 183.962 192.486 184.238C192.102 184.514 191.91 184.88 191.91 185.336ZM200.23 188V178.838H202.03V179.756C202.39 179.396 202.798 179.126 203.254 178.946C203.722 178.754 204.232 178.658 204.784 178.658C205.828 178.658 206.686 178.994 207.358 179.666C208.03 180.326 208.366 181.184 208.366 182.24V188H206.566V182.546C206.566 181.826 206.356 181.262 205.936 180.854C205.528 180.434 204.982 180.224 204.298 180.224C203.818 180.224 203.38 180.326 202.984 180.53C202.6 180.734 202.282 181.028 202.03 181.412V188H200.23ZM214.637 188.072C214.001 188.072 213.401 187.952 212.837 187.712C212.273 187.46 211.781 187.124 211.361 186.704C210.953 186.284 210.629 185.786 210.389 185.21C210.149 184.634 210.029 184.022 210.029 183.374C210.029 182.726 210.149 182.114 210.389 181.538C210.629 180.962 210.953 180.464 211.361 180.044C211.781 179.624 212.273 179.294 212.837 179.054C213.413 178.802 214.025 178.676 214.673 178.676C215.165 178.676 215.639 178.754 216.095 178.91C216.563 179.066 216.995 179.294 217.391 179.594V178.838H219.173V188.126C219.173 189.314 218.807 190.226 218.075 190.862C217.355 191.51 216.323 191.834 214.979 191.834C214.319 191.834 213.665 191.756 213.017 191.6C212.381 191.444 211.805 191.222 211.289 190.934L211.991 189.53C212.507 189.794 213.005 189.992 213.485 190.124C213.965 190.256 214.445 190.322 214.925 190.322C215.717 190.322 216.323 190.136 216.743 189.764C217.163 189.392 217.373 188.846 217.373 188.126V187.1C216.989 187.412 216.563 187.652 216.095 187.82C215.627 187.988 215.141 188.072 214.637 188.072ZM211.793 183.374C211.793 184.25 212.087 184.994 212.675 185.606C213.263 186.206 213.989 186.506 214.853 186.506C215.369 186.506 215.843 186.416 216.275 186.236C216.707 186.044 217.073 185.78 217.373 185.444V181.304C217.085 180.968 216.719 180.71 216.275 180.53C215.843 180.338 215.369 180.242 214.853 180.242C213.989 180.242 213.263 180.548 212.675 181.16C212.087 181.76 211.793 182.498 211.793 183.374Z" fill="white"/>
</svg>
